<mxfile host="Electron" agent="Mozilla/5.0 (Windows NT 10.0; Win64; x64) AppleWebKit/537.36 (KHTML, like Gecko) draw.io/24.7.17 Chrome/128.0.6613.36 Electron/32.0.1 Safari/537.36" version="24.7.17" pages="3">
  <diagram name="Main" id="wl1Mvg6-VT0UJ04rL0Kp">
    <mxGraphModel dx="2868" dy="1672" grid="1" gridSize="10" guides="1" tooltips="1" connect="1" arrows="1" fold="1" page="1" pageScale="1" pageWidth="1600" pageHeight="900" math="0" shadow="0">
      <root>
        <mxCell id="0" />
        <mxCell id="1" parent="0" />
        <mxCell id="BZrU_1-AEO0FKDJKLBUZ-73" value="" style="edgeStyle=orthogonalEdgeStyle;rounded=0;orthogonalLoop=1;jettySize=auto;html=1;" parent="1" source="BZrU_1-AEO0FKDJKLBUZ-44" target="BZrU_1-AEO0FKDJKLBUZ-46" edge="1">
          <mxGeometry relative="1" as="geometry" />
        </mxCell>
        <mxCell id="BZrU_1-AEO0FKDJKLBUZ-44" value="User เปิดหน้า Web" style="rounded=1;whiteSpace=wrap;html=1;arcSize=50;" parent="1" vertex="1">
          <mxGeometry x="160" width="160" height="60" as="geometry" />
        </mxCell>
        <mxCell id="BZrU_1-AEO0FKDJKLBUZ-74" value="" style="edgeStyle=orthogonalEdgeStyle;rounded=0;orthogonalLoop=1;jettySize=auto;html=1;" parent="1" source="BZrU_1-AEO0FKDJKLBUZ-46" target="BZrU_1-AEO0FKDJKLBUZ-47" edge="1">
          <mxGeometry relative="1" as="geometry" />
        </mxCell>
        <mxCell id="BZrU_1-AEO0FKDJKLBUZ-46" value="User ส่งคำขอ&lt;div&gt;เพื่อ create session&lt;/div&gt;" style="rounded=1;whiteSpace=wrap;html=1;" parent="1" vertex="1">
          <mxGeometry x="160" y="120" width="160" height="60" as="geometry" />
        </mxCell>
        <mxCell id="BZrU_1-AEO0FKDJKLBUZ-75" value="" style="edgeStyle=orthogonalEdgeStyle;rounded=0;orthogonalLoop=1;jettySize=auto;html=1;" parent="1" source="BZrU_1-AEO0FKDJKLBUZ-47" target="BZrU_1-AEO0FKDJKLBUZ-48" edge="1">
          <mxGeometry relative="1" as="geometry" />
        </mxCell>
        <mxCell id="BZrU_1-AEO0FKDJKLBUZ-47" value="Backend สร้าง&lt;br&gt;SessinID, accessKey, EncryptionKey" style="rounded=1;whiteSpace=wrap;html=1;" parent="1" vertex="1">
          <mxGeometry x="160" y="240" width="160" height="60" as="geometry" />
        </mxCell>
        <mxCell id="BZrU_1-AEO0FKDJKLBUZ-76" value="" style="edgeStyle=orthogonalEdgeStyle;rounded=0;orthogonalLoop=1;jettySize=auto;html=1;" parent="1" source="BZrU_1-AEO0FKDJKLBUZ-48" target="BZrU_1-AEO0FKDJKLBUZ-49" edge="1">
          <mxGeometry relative="1" as="geometry" />
        </mxCell>
        <mxCell id="BZrU_1-AEO0FKDJKLBUZ-48" value="Backend บันทึก&amp;nbsp;&lt;div&gt;Session ไปยัง MongoDB&lt;/div&gt;" style="rounded=1;whiteSpace=wrap;html=1;" parent="1" vertex="1">
          <mxGeometry x="160" y="360" width="160" height="60" as="geometry" />
        </mxCell>
        <mxCell id="BZrU_1-AEO0FKDJKLBUZ-77" value="" style="edgeStyle=orthogonalEdgeStyle;rounded=0;orthogonalLoop=1;jettySize=auto;html=1;" parent="1" source="BZrU_1-AEO0FKDJKLBUZ-49" target="BZrU_1-AEO0FKDJKLBUZ-50" edge="1">
          <mxGeometry relative="1" as="geometry" />
        </mxCell>
        <mxCell id="BZrU_1-AEO0FKDJKLBUZ-49" value="Backend สร้าง QR Code ที่ redirect ไปยัง upload URL" style="rounded=1;whiteSpace=wrap;html=1;" parent="1" vertex="1">
          <mxGeometry x="160" y="480" width="160" height="60" as="geometry" />
        </mxCell>
        <mxCell id="BZrU_1-AEO0FKDJKLBUZ-78" style="edgeStyle=orthogonalEdgeStyle;rounded=0;orthogonalLoop=1;jettySize=auto;html=1;entryX=0;entryY=0.5;entryDx=0;entryDy=0;exitX=1;exitY=0.75;exitDx=0;exitDy=0;curved=1;" parent="1" source="BZrU_1-AEO0FKDJKLBUZ-50" target="BZrU_1-AEO0FKDJKLBUZ-52" edge="1">
          <mxGeometry relative="1" as="geometry" />
        </mxCell>
        <mxCell id="BZrU_1-AEO0FKDJKLBUZ-79" style="edgeStyle=orthogonalEdgeStyle;rounded=0;orthogonalLoop=1;jettySize=auto;html=1;exitX=1;exitY=0.25;exitDx=0;exitDy=0;entryX=0;entryY=0.5;entryDx=0;entryDy=0;curved=1;" parent="1" source="BZrU_1-AEO0FKDJKLBUZ-50" target="BZrU_1-AEO0FKDJKLBUZ-51" edge="1">
          <mxGeometry relative="1" as="geometry" />
        </mxCell>
        <mxCell id="BZrU_1-AEO0FKDJKLBUZ-50" value="Web Client แสดง QR Code และ accessKey" style="rounded=1;whiteSpace=wrap;html=1;" parent="1" vertex="1">
          <mxGeometry x="160" y="600" width="160" height="60" as="geometry" />
        </mxCell>
        <mxCell id="BZrU_1-AEO0FKDJKLBUZ-51" value="Web Client เชื่อมต่อไปยัง WebScoket ด้วย sessionID" style="rounded=1;whiteSpace=wrap;html=1;" parent="1" vertex="1">
          <mxGeometry x="400" y="480" width="160" height="60" as="geometry" />
        </mxCell>
        <mxCell id="BZrU_1-AEO0FKDJKLBUZ-80" value="" style="edgeStyle=orthogonalEdgeStyle;rounded=0;orthogonalLoop=1;jettySize=auto;html=1;" parent="1" source="BZrU_1-AEO0FKDJKLBUZ-52" target="BZrU_1-AEO0FKDJKLBUZ-53" edge="1">
          <mxGeometry relative="1" as="geometry" />
        </mxCell>
        <mxCell id="BZrU_1-AEO0FKDJKLBUZ-52" value="Uploader scans QR code&lt;br&gt;เพื่อไปยังหน้า upload" style="rounded=1;whiteSpace=wrap;html=1;" parent="1" vertex="1">
          <mxGeometry x="400" y="720" width="160" height="60" as="geometry" />
        </mxCell>
        <mxCell id="BZrU_1-AEO0FKDJKLBUZ-81" value="" style="edgeStyle=orthogonalEdgeStyle;rounded=0;orthogonalLoop=1;jettySize=auto;html=1;" parent="1" source="BZrU_1-AEO0FKDJKLBUZ-53" target="BZrU_1-AEO0FKDJKLBUZ-54" edge="1">
          <mxGeometry relative="1" as="geometry" />
        </mxCell>
        <mxCell id="BZrU_1-AEO0FKDJKLBUZ-53" value="Uploader ทำการ&amp;nbsp;&lt;div&gt;upload ไฟล์ที่เลือก&lt;/div&gt;" style="rounded=1;whiteSpace=wrap;html=1;" parent="1" vertex="1">
          <mxGeometry x="400" y="840" width="160" height="60" as="geometry" />
        </mxCell>
        <mxCell id="BZrU_1-AEO0FKDJKLBUZ-82" value="" style="edgeStyle=orthogonalEdgeStyle;rounded=0;orthogonalLoop=1;jettySize=auto;html=1;" parent="1" source="BZrU_1-AEO0FKDJKLBUZ-54" target="BZrU_1-AEO0FKDJKLBUZ-55" edge="1">
          <mxGeometry relative="1" as="geometry" />
        </mxCell>
        <mxCell id="BZrU_1-AEO0FKDJKLBUZ-54" value="Backend ทำการตรวจสอบนามสกุลไฟล์&lt;div&gt;(Module Multer)&lt;/div&gt;" style="rounded=1;whiteSpace=wrap;html=1;" parent="1" vertex="1">
          <mxGeometry x="600" y="840" width="160" height="60" as="geometry" />
        </mxCell>
        <mxCell id="BZrU_1-AEO0FKDJKLBUZ-83" value="" style="edgeStyle=orthogonalEdgeStyle;rounded=0;orthogonalLoop=1;jettySize=auto;html=1;" parent="1" source="BZrU_1-AEO0FKDJKLBUZ-55" target="BZrU_1-AEO0FKDJKLBUZ-56" edge="1">
          <mxGeometry relative="1" as="geometry" />
        </mxCell>
        <mxCell id="BZrU_1-AEO0FKDJKLBUZ-55" value="Backend ทำการตรวจสอบประเภทของไฟล์ (MIME)&lt;div&gt;(Module FileType)&lt;/div&gt;" style="rounded=1;whiteSpace=wrap;html=1;" parent="1" vertex="1">
          <mxGeometry x="800" y="840" width="160" height="60" as="geometry" />
        </mxCell>
        <mxCell id="THK6lwjkRxoqapPJwnhG-1" style="edgeStyle=orthogonalEdgeStyle;rounded=0;orthogonalLoop=1;jettySize=auto;html=1;exitX=0.5;exitY=0;exitDx=0;exitDy=0;entryX=0.5;entryY=1;entryDx=0;entryDy=0;" parent="1" source="BZrU_1-AEO0FKDJKLBUZ-56" target="BZrU_1-AEO0FKDJKLBUZ-57" edge="1">
          <mxGeometry relative="1" as="geometry" />
        </mxCell>
        <mxCell id="BZrU_1-AEO0FKDJKLBUZ-56" value="Backend ทำการเข้ารหัสไฟล์ด้วย encryptionKey ที่รับมาจาก session" style="rounded=1;whiteSpace=wrap;html=1;" parent="1" vertex="1">
          <mxGeometry x="800" y="720" width="160" height="60" as="geometry" />
        </mxCell>
        <mxCell id="THK6lwjkRxoqapPJwnhG-3" style="edgeStyle=orthogonalEdgeStyle;rounded=0;orthogonalLoop=1;jettySize=auto;html=1;exitX=0.5;exitY=0;exitDx=0;exitDy=0;entryX=0.5;entryY=1;entryDx=0;entryDy=0;" parent="1" source="BZrU_1-AEO0FKDJKLBUZ-57" target="BZrU_1-AEO0FKDJKLBUZ-62" edge="1">
          <mxGeometry relative="1" as="geometry" />
        </mxCell>
        <mxCell id="THK6lwjkRxoqapPJwnhG-4" style="edgeStyle=orthogonalEdgeStyle;rounded=0;orthogonalLoop=1;jettySize=auto;html=1;exitX=1;exitY=0.5;exitDx=0;exitDy=0;entryX=0;entryY=0.5;entryDx=0;entryDy=0;" parent="1" source="BZrU_1-AEO0FKDJKLBUZ-57" target="BZrU_1-AEO0FKDJKLBUZ-60" edge="1">
          <mxGeometry relative="1" as="geometry" />
        </mxCell>
        <mxCell id="BZrU_1-AEO0FKDJKLBUZ-57" value="บันทึกไฟล์ที่เข้ารหัสไปยัง directory" style="rounded=1;whiteSpace=wrap;html=1;" parent="1" vertex="1">
          <mxGeometry x="800" y="600" width="160" height="60" as="geometry" />
        </mxCell>
        <mxCell id="BZrU_1-AEO0FKDJKLBUZ-60" value="Backend ทำการ&lt;div&gt;ลบไฟล์ต้นฉบับ&lt;/div&gt;" style="rounded=1;whiteSpace=wrap;html=1;" parent="1" vertex="1">
          <mxGeometry x="1040" y="600" width="160" height="60" as="geometry" />
        </mxCell>
        <mxCell id="BZrU_1-AEO0FKDJKLBUZ-67" style="edgeStyle=orthogonalEdgeStyle;rounded=0;orthogonalLoop=1;jettySize=auto;html=1;exitX=1;exitY=0.5;exitDx=0;exitDy=0;entryX=0;entryY=0.5;entryDx=0;entryDy=0;" parent="1" source="BZrU_1-AEO0FKDJKLBUZ-62" target="BZrU_1-AEO0FKDJKLBUZ-65" edge="1">
          <mxGeometry relative="1" as="geometry" />
        </mxCell>
        <mxCell id="BZrU_1-AEO0FKDJKLBUZ-62" value="Backend update ข้อมูล&lt;div&gt;ไฟล์ใน MongoDB&lt;/div&gt;" style="rounded=1;whiteSpace=wrap;html=1;" parent="1" vertex="1">
          <mxGeometry x="800" y="440" width="160" height="60" as="geometry" />
        </mxCell>
        <mxCell id="BZrU_1-AEO0FKDJKLBUZ-68" value="" style="edgeStyle=orthogonalEdgeStyle;rounded=0;orthogonalLoop=1;jettySize=auto;html=1;" parent="1" source="BZrU_1-AEO0FKDJKLBUZ-65" target="BZrU_1-AEO0FKDJKLBUZ-66" edge="1">
          <mxGeometry relative="1" as="geometry" />
        </mxCell>
        <mxCell id="BZrU_1-AEO0FKDJKLBUZ-65" value="Backend ส่งสถานะ FILE_UPLOADED และการแจ้งเตือนไปยัง WebSocket" style="rounded=1;whiteSpace=wrap;html=1;" parent="1" vertex="1">
          <mxGeometry x="1040" y="440" width="160" height="60" as="geometry" />
        </mxCell>
        <mxCell id="BZrU_1-AEO0FKDJKLBUZ-66" value="Web Client แสดงรายการไฟล์บนหน้าเว็บไซต์ของ User" style="rounded=1;whiteSpace=wrap;html=1;" parent="1" vertex="1">
          <mxGeometry x="1280" y="440" width="160" height="60" as="geometry" />
        </mxCell>
      </root>
    </mxGraphModel>
  </diagram>
  <diagram id="ZTvcAFN---W-DQ3smyXX" name="Cronjob">
    <mxGraphModel dx="-405" dy="697" grid="1" gridSize="10" guides="1" tooltips="1" connect="1" arrows="1" fold="1" page="1" pageScale="1" pageWidth="1600" pageHeight="900" math="0" shadow="0">
      <root>
        <mxCell id="0" />
        <mxCell id="1" parent="0" />
        <mxCell id="Xb1dqqKyzD0XLqjtU2QZ-1" value="" style="edgeStyle=orthogonalEdgeStyle;rounded=0;orthogonalLoop=1;jettySize=auto;html=1;entryX=0;entryY=0.5;entryDx=0;entryDy=0;" parent="1" source="Xb1dqqKyzD0XLqjtU2QZ-2" target="Xb1dqqKyzD0XLqjtU2QZ-15" edge="1">
          <mxGeometry relative="1" as="geometry">
            <mxPoint x="2255" y="300" as="targetPoint" />
          </mxGeometry>
        </mxCell>
        <mxCell id="Xb1dqqKyzD0XLqjtU2QZ-2" value="Cronjob ทำงานทุกๆ 1 ชั่วโมง" style="rounded=1;whiteSpace=wrap;html=1;arcSize=50;" parent="1" vertex="1">
          <mxGeometry x="1895" y="380" width="160" height="60" as="geometry" />
        </mxCell>
        <mxCell id="Xb1dqqKyzD0XLqjtU2QZ-3" value="" style="edgeStyle=orthogonalEdgeStyle;rounded=0;orthogonalLoop=1;jettySize=auto;html=1;exitX=1;exitY=0.5;exitDx=0;exitDy=0;" parent="1" source="Xb1dqqKyzD0XLqjtU2QZ-15" target="Xb1dqqKyzD0XLqjtU2QZ-10" edge="1">
          <mxGeometry relative="1" as="geometry" />
        </mxCell>
        <mxCell id="Xb1dqqKyzD0XLqjtU2QZ-4" style="edgeStyle=orthogonalEdgeStyle;rounded=0;orthogonalLoop=1;jettySize=auto;html=1;exitX=1;exitY=0.5;exitDx=0;exitDy=0;entryX=0.5;entryY=1;entryDx=0;entryDy=0;" parent="1" source="Xb1dqqKyzD0XLqjtU2QZ-5" target="Xb1dqqKyzD0XLqjtU2QZ-11" edge="1">
          <mxGeometry relative="1" as="geometry" />
        </mxCell>
        <mxCell id="Xb1dqqKyzD0XLqjtU2QZ-5" value="สร้าง directory เพื่อไว้ใช้จัดเก็บไฟล์ให้เป็นระเบียบ" style="rounded=1;whiteSpace=wrap;html=1;arcSize=0;" parent="1" vertex="1">
          <mxGeometry x="2145" y="580" width="160" height="60" as="geometry" />
        </mxCell>
        <mxCell id="Xb1dqqKyzD0XLqjtU2QZ-6" style="edgeStyle=orthogonalEdgeStyle;rounded=0;orthogonalLoop=1;jettySize=auto;html=1;exitX=0.5;exitY=1;exitDx=0;exitDy=0;entryX=0.5;entryY=0;entryDx=0;entryDy=0;" parent="1" source="Xb1dqqKyzD0XLqjtU2QZ-7" target="Xb1dqqKyzD0XLqjtU2QZ-11" edge="1">
          <mxGeometry relative="1" as="geometry" />
        </mxCell>
        <mxCell id="Xb1dqqKyzD0XLqjtU2QZ-7" value="Delete Session Folder" style="rounded=1;whiteSpace=wrap;html=1;arcSize=0;" parent="1" vertex="1">
          <mxGeometry x="2745" y="260" width="160" height="60" as="geometry" />
        </mxCell>
        <mxCell id="Xb1dqqKyzD0XLqjtU2QZ-8" style="edgeStyle=orthogonalEdgeStyle;rounded=0;orthogonalLoop=1;jettySize=auto;html=1;exitX=0.5;exitY=0;exitDx=0;exitDy=0;entryX=0;entryY=0.5;entryDx=0;entryDy=0;" parent="1" source="Xb1dqqKyzD0XLqjtU2QZ-10" target="Xb1dqqKyzD0XLqjtU2QZ-7" edge="1">
          <mxGeometry relative="1" as="geometry" />
        </mxCell>
        <mxCell id="Xb1dqqKyzD0XLqjtU2QZ-9" style="edgeStyle=orthogonalEdgeStyle;rounded=0;orthogonalLoop=1;jettySize=auto;html=1;exitX=0.5;exitY=1;exitDx=0;exitDy=0;entryX=0;entryY=0.5;entryDx=0;entryDy=0;" parent="1" source="Xb1dqqKyzD0XLqjtU2QZ-10" target="Xb1dqqKyzD0XLqjtU2QZ-11" edge="1">
          <mxGeometry relative="1" as="geometry" />
        </mxCell>
        <mxCell id="Xb1dqqKyzD0XLqjtU2QZ-10" value="&lt;p style=&quot;line-height: 200%;&quot;&gt;&lt;span style=&quot;background-color: rgb(25, 22, 30);&quot;&gt;เช็ค Session expired ของแต่ละ folder ใน MongoDB&lt;/span&gt;&lt;/p&gt;" style="rhombus;whiteSpace=wrap;html=1;" parent="1" vertex="1">
          <mxGeometry x="2455" y="350" width="120" height="120" as="geometry" />
        </mxCell>
        <mxCell id="Xb1dqqKyzD0XLqjtU2QZ-11" value="สิ้นสุดการทำงาน" style="rounded=1;whiteSpace=wrap;html=1;arcSize=50;" parent="1" vertex="1">
          <mxGeometry x="2745" y="500" width="160" height="60" as="geometry" />
        </mxCell>
        <mxCell id="Xb1dqqKyzD0XLqjtU2QZ-12" value="ถ้าไม่พบ Session ในฐานข้อมูล" style="text;html=1;align=center;verticalAlign=middle;whiteSpace=wrap;rounded=0;labelBackgroundColor=none;" parent="1" vertex="1">
          <mxGeometry x="2535" y="260" width="180" height="30" as="geometry" />
        </mxCell>
        <mxCell id="Xb1dqqKyzD0XLqjtU2QZ-13" value="ถ้ายังมี Session ในฐานข้อมูล" style="text;html=1;align=center;verticalAlign=middle;whiteSpace=wrap;rounded=0;labelBackgroundColor=none;" parent="1" vertex="1">
          <mxGeometry x="2545" y="500" width="170" height="30" as="geometry" />
        </mxCell>
        <mxCell id="Xb1dqqKyzD0XLqjtU2QZ-14" style="edgeStyle=orthogonalEdgeStyle;rounded=0;orthogonalLoop=1;jettySize=auto;html=1;exitX=0.5;exitY=1;exitDx=0;exitDy=0;entryX=0.5;entryY=0;entryDx=0;entryDy=0;" parent="1" source="Xb1dqqKyzD0XLqjtU2QZ-15" target="Xb1dqqKyzD0XLqjtU2QZ-5" edge="1">
          <mxGeometry relative="1" as="geometry" />
        </mxCell>
        <mxCell id="Xb1dqqKyzD0XLqjtU2QZ-15" value="&lt;div style=&quot;line-height: 200%;&quot;&gt;&lt;span style=&quot;background-color: rgb(25, 22, 30);&quot;&gt;Backend ตรวจสอบ folders ทั้งหมดใน directory&lt;/span&gt;&lt;/div&gt;" style="rhombus;whiteSpace=wrap;html=1;align=center;" parent="1" vertex="1">
          <mxGeometry x="2160" y="350" width="130" height="120" as="geometry" />
        </mxCell>
        <mxCell id="Xb1dqqKyzD0XLqjtU2QZ-16" value="ถ้าไม่พบ directory" style="text;html=1;align=center;verticalAlign=middle;whiteSpace=wrap;rounded=0;labelBackgroundColor=none;" parent="1" vertex="1">
          <mxGeometry x="2225" y="500" width="100" height="30" as="geometry" />
        </mxCell>
        <mxCell id="Xb1dqqKyzD0XLqjtU2QZ-17" value="ถ้าพบ directory" style="text;html=1;align=center;verticalAlign=middle;whiteSpace=wrap;rounded=0;labelBackgroundColor=none;" parent="1" vertex="1">
          <mxGeometry x="2320" y="380" width="100" height="30" as="geometry" />
        </mxCell>
      </root>
    </mxGraphModel>
  </diagram>
  <diagram id="CC0p2YWGfb0gICLZ-bgB" name="BotSide">
    <mxGraphModel dx="2607" dy="1520" grid="1" gridSize="10" guides="1" tooltips="1" connect="1" arrows="1" fold="1" page="1" pageScale="1" pageWidth="1600" pageHeight="900" math="0" shadow="0">
      <root>
        <mxCell id="0" />
        <mxCell id="1" parent="0" />
        <mxCell id="Y6D7TMd0dwdDI_jKAREv-1" value="" style="edgeStyle=orthogonalEdgeStyle;rounded=0;orthogonalLoop=1;jettySize=auto;html=1;" parent="1" source="Y6D7TMd0dwdDI_jKAREv-2" target="Y6D7TMd0dwdDI_jKAREv-4" edge="1">
          <mxGeometry relative="1" as="geometry" />
        </mxCell>
        <mxCell id="Y6D7TMd0dwdDI_jKAREv-2" value="User ส่งไฟล์ไปยัง Bot (LINE/Discord)" style="rounded=1;whiteSpace=wrap;html=1;arcSize=50;" parent="1" vertex="1">
          <mxGeometry x="135" y="55" width="160" height="60" as="geometry" />
        </mxCell>
        <mxCell id="Y6D7TMd0dwdDI_jKAREv-3" style="edgeStyle=orthogonalEdgeStyle;rounded=0;orthogonalLoop=1;jettySize=auto;html=1;exitX=1;exitY=0.5;exitDx=0;exitDy=0;entryX=0;entryY=0.5;entryDx=0;entryDy=0;" parent="1" source="Y6D7TMd0dwdDI_jKAREv-4" target="Y6D7TMd0dwdDI_jKAREv-13" edge="1">
          <mxGeometry relative="1" as="geometry" />
        </mxCell>
        <mxCell id="Y6D7TMd0dwdDI_jKAREv-4" value="platform ส่ง webhook/&lt;div&gt;event ไปยัง Backend&lt;/div&gt;" style="rounded=1;whiteSpace=wrap;html=1;arcSize=0;" parent="1" vertex="1">
          <mxGeometry x="135" y="195" width="160" height="60" as="geometry" />
        </mxCell>
        <mxCell id="Y6D7TMd0dwdDI_jKAREv-5" value="" style="edgeStyle=orthogonalEdgeStyle;rounded=0;orthogonalLoop=1;jettySize=auto;html=1;" parent="1" source="Y6D7TMd0dwdDI_jKAREv-6" target="Y6D7TMd0dwdDI_jKAREv-8" edge="1">
          <mxGeometry relative="1" as="geometry" />
        </mxCell>
        <mxCell id="Y6D7TMd0dwdDI_jKAREv-6" value="download&amp;nbsp;&lt;div&gt;ไฟล์จาก platform&amp;nbsp;&lt;/div&gt;" style="rounded=1;whiteSpace=wrap;html=1;arcSize=0;" parent="1" vertex="1">
          <mxGeometry x="595" y="195" width="160" height="60" as="geometry" />
        </mxCell>
        <mxCell id="Y6D7TMd0dwdDI_jKAREv-7" value="" style="edgeStyle=orthogonalEdgeStyle;rounded=0;orthogonalLoop=1;jettySize=auto;html=1;" parent="1" source="Y6D7TMd0dwdDI_jKAREv-8" target="Y6D7TMd0dwdDI_jKAREv-10" edge="1">
          <mxGeometry relative="1" as="geometry" />
        </mxCell>
        <mxCell id="Y6D7TMd0dwdDI_jKAREv-8" value="สร้าง sessionID,&amp;nbsp;&lt;div&gt;accessKey,&amp;nbsp;&lt;/div&gt;&lt;div&gt;encryptionKey&lt;/div&gt;" style="rounded=1;whiteSpace=wrap;html=1;arcSize=0;" parent="1" vertex="1">
          <mxGeometry x="595" y="375" width="160" height="60" as="geometry" />
        </mxCell>
        <mxCell id="Y6D7TMd0dwdDI_jKAREv-9" style="edgeStyle=orthogonalEdgeStyle;rounded=0;orthogonalLoop=1;jettySize=auto;html=1;exitX=1;exitY=0.5;exitDx=0;exitDy=0;entryX=0;entryY=0.5;entryDx=0;entryDy=0;" parent="1" source="Y6D7TMd0dwdDI_jKAREv-10" target="Y6D7TMd0dwdDI_jKAREv-25" edge="1">
          <mxGeometry relative="1" as="geometry" />
        </mxCell>
        <mxCell id="Y6D7TMd0dwdDI_jKAREv-10" value="Encrypt ไฟล์ด้วย encryptionKey" style="rounded=1;whiteSpace=wrap;html=1;arcSize=0;" parent="1" vertex="1">
          <mxGeometry x="595" y="535" width="160" height="60" as="geometry" />
        </mxCell>
        <mxCell id="Y6D7TMd0dwdDI_jKAREv-11" style="edgeStyle=orthogonalEdgeStyle;rounded=0;orthogonalLoop=1;jettySize=auto;html=1;exitX=0.5;exitY=1;exitDx=0;exitDy=0;entryX=0.5;entryY=0;entryDx=0;entryDy=0;" parent="1" source="Y6D7TMd0dwdDI_jKAREv-13" target="Y6D7TMd0dwdDI_jKAREv-15" edge="1">
          <mxGeometry relative="1" as="geometry" />
        </mxCell>
        <mxCell id="Y6D7TMd0dwdDI_jKAREv-12" style="edgeStyle=orthogonalEdgeStyle;rounded=0;orthogonalLoop=1;jettySize=auto;html=1;exitX=1;exitY=0.5;exitDx=0;exitDy=0;entryX=0;entryY=0.5;entryDx=0;entryDy=0;" parent="1" source="Y6D7TMd0dwdDI_jKAREv-13" target="Y6D7TMd0dwdDI_jKAREv-6" edge="1">
          <mxGeometry relative="1" as="geometry" />
        </mxCell>
        <mxCell id="Y6D7TMd0dwdDI_jKAREv-13" value="&lt;span style=&quot;background-color: rgb(25, 22, 30);&quot;&gt;ตรวจสอบ&lt;/span&gt;&lt;div&gt;&lt;span style=&quot;background-color: rgb(25, 22, 30);&quot;&gt;ประเภทของไฟล์&lt;/span&gt;&lt;/div&gt;" style="rhombus;whiteSpace=wrap;html=1;" parent="1" vertex="1">
          <mxGeometry x="375" y="165" width="120" height="120" as="geometry" />
        </mxCell>
        <mxCell id="Y6D7TMd0dwdDI_jKAREv-14" style="edgeStyle=orthogonalEdgeStyle;rounded=0;orthogonalLoop=1;jettySize=auto;html=1;exitX=0.5;exitY=1;exitDx=0;exitDy=0;entryX=0.5;entryY=0;entryDx=0;entryDy=0;" parent="1" source="Y6D7TMd0dwdDI_jKAREv-15" target="Y6D7TMd0dwdDI_jKAREv-16" edge="1">
          <mxGeometry relative="1" as="geometry" />
        </mxCell>
        <mxCell id="Y6D7TMd0dwdDI_jKAREv-15" value="Reply กลับ ว่าไฟล์&lt;div&gt;ไม่ผ่านข้อบังคับ&lt;/div&gt;" style="rounded=0;whiteSpace=wrap;html=1;" parent="1" vertex="1">
          <mxGeometry x="375" y="375" width="120" height="60" as="geometry" />
        </mxCell>
        <mxCell id="Y6D7TMd0dwdDI_jKAREv-16" value="สิ้นสุดการทำงาน" style="rounded=1;whiteSpace=wrap;html=1;arcSize=50;" parent="1" vertex="1">
          <mxGeometry x="355" y="815" width="160" height="60" as="geometry" />
        </mxCell>
        <mxCell id="Y6D7TMd0dwdDI_jKAREv-17" value="ผ่าน" style="text;html=1;align=center;verticalAlign=middle;whiteSpace=wrap;rounded=0;" parent="1" vertex="1">
          <mxGeometry x="515" y="195" width="50" height="30" as="geometry" />
        </mxCell>
        <mxCell id="Y6D7TMd0dwdDI_jKAREv-18" value="ไม่ผ่าน" style="text;html=1;align=center;verticalAlign=middle;whiteSpace=wrap;rounded=0;" parent="1" vertex="1">
          <mxGeometry x="435" y="310" width="60" height="30" as="geometry" />
        </mxCell>
        <mxCell id="Y6D7TMd0dwdDI_jKAREv-19" value="&lt;h1 style=&quot;text-align: center; margin-top: 0px;&quot;&gt;&lt;font style=&quot;font-size: 18px;&quot;&gt;เกณฑ์การตรวจสอบ&lt;/font&gt;&lt;/h1&gt;&lt;p&gt;blacklist ไฟล์ประเภท .exe, .bat, .cmd, .sh, .msi, .vbs, .js, .jar, .scr, .pif,&amp;nbsp;&lt;span style=&quot;background-color: initial;&quot;&gt;.dll, .com, .ps1, .psm1, .reg, .cpl&lt;/span&gt;&lt;/p&gt;&lt;p&gt;ขนาดไฟล์ไม่เกิน 10Mb&lt;/p&gt;" style="text;html=1;whiteSpace=wrap;overflow=hidden;rounded=0;" parent="1" vertex="1">
          <mxGeometry x="335" y="25" width="200" height="120" as="geometry" />
        </mxCell>
        <mxCell id="Y6D7TMd0dwdDI_jKAREv-20" style="edgeStyle=orthogonalEdgeStyle;rounded=0;orthogonalLoop=1;jettySize=auto;html=1;exitX=1;exitY=0.5;exitDx=0;exitDy=0;entryX=0;entryY=0.5;entryDx=0;entryDy=0;" parent="1" source="Y6D7TMd0dwdDI_jKAREv-22" target="Y6D7TMd0dwdDI_jKAREv-30" edge="1">
          <mxGeometry relative="1" as="geometry" />
        </mxCell>
        <mxCell id="Y6D7TMd0dwdDI_jKAREv-21" style="edgeStyle=orthogonalEdgeStyle;rounded=0;orthogonalLoop=1;jettySize=auto;html=1;exitX=0.5;exitY=1;exitDx=0;exitDy=0;entryX=0.5;entryY=0;entryDx=0;entryDy=0;" parent="1" source="Y6D7TMd0dwdDI_jKAREv-22" target="Y6D7TMd0dwdDI_jKAREv-32" edge="1">
          <mxGeometry relative="1" as="geometry" />
        </mxCell>
        <mxCell id="Y6D7TMd0dwdDI_jKAREv-22" value="&lt;span style=&quot;background-color: rgb(25, 22, 30);&quot;&gt;บันทึกไฟล์ที่เข้ารหัส&lt;/span&gt;&lt;div&gt;&lt;span style=&quot;background-color: rgb(25, 22, 30);&quot;&gt;ไปยัง directory&lt;/span&gt;&lt;/div&gt;" style="rounded=1;whiteSpace=wrap;html=1;arcSize=0;" parent="1" vertex="1">
          <mxGeometry x="1055" y="535" width="160" height="60" as="geometry" />
        </mxCell>
        <mxCell id="Y6D7TMd0dwdDI_jKAREv-23" style="edgeStyle=orthogonalEdgeStyle;rounded=0;orthogonalLoop=1;jettySize=auto;html=1;exitX=1;exitY=0.5;exitDx=0;exitDy=0;entryX=0;entryY=0.5;entryDx=0;entryDy=0;" parent="1" source="Y6D7TMd0dwdDI_jKAREv-25" target="Y6D7TMd0dwdDI_jKAREv-22" edge="1">
          <mxGeometry relative="1" as="geometry" />
        </mxCell>
        <mxCell id="Y6D7TMd0dwdDI_jKAREv-24" style="edgeStyle=orthogonalEdgeStyle;rounded=0;orthogonalLoop=1;jettySize=auto;html=1;exitX=0.5;exitY=0;exitDx=0;exitDy=0;entryX=0.5;entryY=1;entryDx=0;entryDy=0;" parent="1" source="Y6D7TMd0dwdDI_jKAREv-25" target="Y6D7TMd0dwdDI_jKAREv-27" edge="1">
          <mxGeometry relative="1" as="geometry" />
        </mxCell>
        <mxCell id="Y6D7TMd0dwdDI_jKAREv-25" value="&lt;span style=&quot;background-color: rgb(25, 22, 30);&quot;&gt;มี directory?&lt;/span&gt;" style="rhombus;whiteSpace=wrap;html=1;" parent="1" vertex="1">
          <mxGeometry x="855" y="505" width="120" height="120" as="geometry" />
        </mxCell>
        <mxCell id="Y6D7TMd0dwdDI_jKAREv-26" style="edgeStyle=orthogonalEdgeStyle;rounded=0;orthogonalLoop=1;jettySize=auto;html=1;exitX=1;exitY=0.5;exitDx=0;exitDy=0;entryX=0.5;entryY=0;entryDx=0;entryDy=0;" parent="1" source="Y6D7TMd0dwdDI_jKAREv-27" target="Y6D7TMd0dwdDI_jKAREv-22" edge="1">
          <mxGeometry relative="1" as="geometry" />
        </mxCell>
        <mxCell id="Y6D7TMd0dwdDI_jKAREv-27" value="&lt;span style=&quot;background-color: rgb(25, 22, 30);&quot;&gt;สร้าง directory&lt;/span&gt;" style="rounded=1;whiteSpace=wrap;html=1;arcSize=0;" parent="1" vertex="1">
          <mxGeometry x="835" y="375" width="160" height="60" as="geometry" />
        </mxCell>
        <mxCell id="Y6D7TMd0dwdDI_jKAREv-28" value="Yes" style="text;html=1;align=center;verticalAlign=middle;whiteSpace=wrap;rounded=0;" parent="1" vertex="1">
          <mxGeometry x="995" y="535" width="40" height="30" as="geometry" />
        </mxCell>
        <mxCell id="Y6D7TMd0dwdDI_jKAREv-29" value="No" style="text;html=1;align=center;verticalAlign=middle;whiteSpace=wrap;rounded=0;" parent="1" vertex="1">
          <mxGeometry x="915" y="455" width="40" height="30" as="geometry" />
        </mxCell>
        <mxCell id="Y6D7TMd0dwdDI_jKAREv-30" value="ทำการ&lt;span style=&quot;background-color: initial;&quot;&gt;ลบ&lt;/span&gt;&lt;div&gt;&lt;span style=&quot;background-color: initial;&quot;&gt;ไฟล์ต้นฉบับ&lt;/span&gt;&lt;/div&gt;" style="rounded=1;whiteSpace=wrap;html=1;arcSize=0;" parent="1" vertex="1">
          <mxGeometry x="1305" y="535" width="160" height="60" as="geometry" />
        </mxCell>
        <mxCell id="Y6D7TMd0dwdDI_jKAREv-31" value="" style="edgeStyle=orthogonalEdgeStyle;rounded=0;orthogonalLoop=1;jettySize=auto;html=1;" parent="1" source="Y6D7TMd0dwdDI_jKAREv-32" target="Y6D7TMd0dwdDI_jKAREv-34" edge="1">
          <mxGeometry relative="1" as="geometry" />
        </mxCell>
        <mxCell id="Y6D7TMd0dwdDI_jKAREv-32" value="Backend บันทึก session และข้อมูลไฟล์ไปยัง MongoDB" style="rounded=1;whiteSpace=wrap;html=1;arcSize=0;" parent="1" vertex="1">
          <mxGeometry x="1055" y="675" width="160" height="60" as="geometry" />
        </mxCell>
        <mxCell id="Y6D7TMd0dwdDI_jKAREv-33" style="edgeStyle=orthogonalEdgeStyle;rounded=0;orthogonalLoop=1;jettySize=auto;html=1;exitX=0;exitY=0.5;exitDx=0;exitDy=0;entryX=1;entryY=0.5;entryDx=0;entryDy=0;" parent="1" source="Y6D7TMd0dwdDI_jKAREv-34" target="Y6D7TMd0dwdDI_jKAREv-16" edge="1">
          <mxGeometry relative="1" as="geometry" />
        </mxCell>
        <mxCell id="Y6D7TMd0dwdDI_jKAREv-34" value="Bot ตอบกลับ User และส่ง accessKey กลับไปให้ User" style="rounded=1;whiteSpace=wrap;html=1;arcSize=0;" parent="1" vertex="1">
          <mxGeometry x="1055" y="815" width="160" height="60" as="geometry" />
        </mxCell>
      </root>
    </mxGraphModel>
  </diagram>
</mxfile>
